# xmcd
#
# Track frame offsets:
#	150
#	17009
#	31906
#	47118
#	65133
#	80692
#	96259
#	116876
#	135937
#	153859
#	168678
#	183944
#	200110
#	213937
#	229271
#	242895
#	256584
#	274527
#	288224
#	306163
#	321845
#	339049
#
# Disc length: 4729 seconds
#
# Revision: 1
# Processed by: cddbd v1.5.2PL0 Copyright (c) Steve Scherf et al.
# Submitted via: audiograbber 1.83.01
#
DISCID=36127716
DTITLE=Various Artist - CD 428
DYEAR=2007
DGENRE=Country
TTITLE0=Carolina Rain - Dealin'
TTITLE1=Van Zant - Goes Down Easy
TTITLE2=Trisha Yearwood - Heaven, Heartache And The Power Of Love
TTITLE3=George Strait - How 'Bout Them Cowgirls
TTITLE4=Jennifer Hanson - Joyride
TTITLE5=Jason Aldean - Laughed Until We Cried
TTITLE6=Bomshel - Power Of One
TTITLE7=Dan Colehour - Quarry Town
TTITLE8=Alison Krauss - Simple Love
TTITLE9=Jake Owen - Something About A Woman
TTITLE10=Brent Keith - Looking For A Road (Theme From "Dale")
TTITLE11=Mollie Castle - A Guy Like That
TTITLE12=Jennifer Brantley - Blonde Girls
TTITLE13=Craig Curtis - Football Y'All
TTITLE14=Woody Bradshaw - Friction
TTITLE15=Sammy Sadler - Heart Shaped Like Texas
TTITLE16=Doc Wooten - Mary Jo Brown
TTITLE17=Mike Lounibos - Planet California
TTITLE18=Bettina - She Is
TTITLE19=Sam Durrence - She'll Be Back Again
TTITLE20=Cerrito - They Know You're Gone
TTITLE21=Jr. and The Roadkill Choir - No Man Was Ever Shot Washin' The Dirty Dish
TTITLE21=es
EXTD=
EXTT0=
EXTT1=
EXTT2=
EXTT3=
EXTT4=
EXTT5=
EXTT6=
EXTT7=
EXTT8=
EXTT9=
EXTT10=
EXTT11=
EXTT12=
EXTT13=
EXTT14=
EXTT15=
EXTT16=
EXTT17=
EXTT18=
EXTT19=
EXTT20=
EXTT21=
PLAYORDER=
